<svg xmlns="http://www.w3.org/2000/svg" viewBox="0 0 438.49 456.34"><defs><style>.cls-1{font-size:58.55px;}.cls-1,.cls-2,.cls-3{fill:#231815;font-family:InkFree, Ink Free;}.cls-2{font-size:55.13px;}.cls-3{font-size:52.29px;}.cls-4{fill:#48b5dd;}</style></defs><g id="图层_4" data-name="图层 4"><text class="cls-1" transform="translate(59 377.19) scale(1.2 1)">Ocean</text><text class="cls-2" transform="translate(258.33 376.04) scale(1.22 1)">Cat</text><text class="cls-3" transform="translate(125.89 439.19) scale(1.35 1)">Studio</text></g><g id="图层_3" data-name="图层 3"><path d="M173.25,267.62a22.75,22.75,0,0,1-8.79-3.19c-7.81-4.93-10.25-13.66-12.37-22-5.91-23.09-8.9-34.63-9.19-41.92-.45-11.56-1.21-31.39,9.19-51.9,13.1-25.84,36-37.24,49.5-43.92,14.1-7,39-16.46,69.47-13.57a103.22,103.22,0,0,1,32.73,7.93c22.22,9.57,34.65,24.69,43.92,36,25.17,30.62,31.17,61.69,32.34,68.27a141.3,141.3,0,0,1,2,31.06,4,4,0,0,1-5.28,1.46c-1.47-.87-1.69-3.11-1.76-3.81a6.81,6.81,0,0,1,.15-2.2c.64-2.68.37-19.28-1.75-30.91-3.72-20.42-15.72-39.64-19.7-45.7-7-10.58-17.55-26.73-38-39.81-6.57-4.21-34-21.78-67.43-17.47-11.7,1.51-22.19,5.45-29.86,8.33-9.59,3.6-20,7.5-30.87,15.23-7,5-24.88,18-33.52,41.84-6.12,16.88-4.7,31.19-3.45,43.88A137.94,137.94,0,0,0,165.45,255l9.34,9.95Z" transform="translate(-50.04 -39.75)"/><path d="M189.21,149.18a3.44,3.44,0,0,1-.2-3.45c.73-1.44,2.38-1.87,6.5-2.65,4.69-.88,7.32-1.23,10-1.62,6.59-1,8.09-1.5,9.14-.41a4.34,4.34,0,0,1-.2,5.49c-1.21,1.17-2.61.29-6.71.61a35.22,35.22,0,0,0-7.71,1.62c-3,.91-4.19,1.61-6.71,1.63C191.85,150.4,190.12,150.39,189.21,149.18Z" transform="translate(-50.04 -39.75)"/><path d="M287.11,148.16a2.44,2.44,0,0,1-1.42-1.22c-.71-1.42.36-3.29,1.22-4.46s2.55-1.67,6.09-2c5.61-.58,8.42-.87,12.59-.4,4.88.55,8.42.94,9.14,3a3.68,3.68,0,0,1-1.42,3.86c-1.47,1-3.13.1-6.5-.4-2.18-.32-4.3-.19-8.55.09-5.34.34-8,.51-9.12,1.13A2.79,2.79,0,0,1,287.11,148.16Z" transform="translate(-50.04 -39.75)"/><path d="M272.49,173.15a2.65,2.65,0,0,0-2.24,0,28.28,28.28,0,0,1-5.48,7.51c-2.92,2.85-5.48,5.37-8.53,4.88-3.82-.62-5.67-5.49-5.89-6.1a11.22,11.22,0,0,1-.41-6.09,3.28,3.28,0,0,0-2.44-1.42c-1.39.06-2.1,1.68-3.65,3.86s-3.67,5.14-6.91,6.5c-.56.23-4.11,1.65-6.09,0-.87-.73-1-1.72-1.42-3.66a13.53,13.53,0,0,1,0-6.91,2.89,2.89,0,0,0,.2-2,2.39,2.39,0,0,0-2.23-1.42c-1,.07-1.62,1-2.64,2.64a12.18,12.18,0,0,0-2.24,5.08c-.24,1.7,0,2.92.61,5.28s.83,3.5,1.83,4.87a9.36,9.36,0,0,0,3.86,3.05,25.41,25.41,0,0,0-3.45,9.95c-.45,3.64-1.06,8.61,2,12s8.23,3.2,11.57,3a24.45,24.45,0,0,0,12.39-4.26c2.92-1.87,8.06-5.16,9.75-11.38a16.1,16.1,0,0,0,.41-6.29,21.84,21.84,0,0,0,9.34-7.72A16.66,16.66,0,0,0,273.5,176C273.46,174,272.88,173.39,272.49,173.15ZM253.8,196.5c-1,5.75-6.68,8.69-8.73,9.75-2.77,1.43-6.12,3.16-9.75,1.83A8.46,8.46,0,0,1,230,202.6c-.44-1.73.11-3.59,1.22-7.32.59-2,1.19-3.6,1.62-4.67a44,44,0,0,0,6.3-2,14.46,14.46,0,0,0,4.67-2.64,11.34,11.34,0,0,0,2-2.44,10,10,0,0,0,2.84,5.89A9.89,9.89,0,0,0,253.6,192,10.91,10.91,0,0,1,253.8,196.5Z" transform="translate(-50.04 -39.75)"/><path d="M153.64,150.7c-1.84,4.18-4.07,9-5.23,8.71-.91-.22-.88-3.48-.85-7.13a40.57,40.57,0,0,1,.42-6.56,90.3,90.3,0,0,1,4.71-17.11,220.2,220.2,0,0,1,8.51-20.4c2.64-5.47,4.19-8.4,6.59-13.79a129.09,129.09,0,0,1,5.92-12.54c7.64-14.23,18.13-31,32.06-38.84,4.33-2.44,8.56-3.78,13-3.13,2.76.41,5.41,1.54,10.16,5.21a78.38,78.38,0,0,1,16.95,18,76.78,76.78,0,0,1,8.86,21.64c.65,2.62,1.32,6-.52,7.82a4.1,4.1,0,0,1-4.43.78c-2.3-1.19-1.78-5-2.61-10.17a38.68,38.68,0,0,0-4.16-12.1,87.93,87.93,0,0,0-8.31-11.42c-6.56-7.63-10.64-12.37-16.2-13.23-7.49-1.16-14,5.25-20.34,11.47-2.33,2.29-9.69,9.81-20.07,30.76a234.61,234.61,0,0,0-13.29,31.54c-2.6,7.88-7.64,15.19-8.35,23.46C156.5,143.66,155.75,145.91,153.64,150.7Z" transform="translate(-50.04 -39.75)"/><path d="M300.78,101.29c-1.08-2.46,3.74-6.77,8.24-10.8,15.54-13.92,15.76-14.18,18.29-16.11,6.82-5.23,10.64-7.53,15.06-9.38,6.73-2.82,9.8-2.48,11.85-1.71,3,1.14,4.84,3.58,6.35,6.16,5.22,9,6,18.72,6.72,31.75.68,12.64.86,20.46.86,20.46,0,17,.86,22.42.47,30-.33,6.44-.94,11.72-1.42,15.26l-5.69-7.3c.43-4.91.9-11.55,1.14-19.43.19-6,.08-7.66-.19-27.47a257.6,257.6,0,0,0-1.61-26.63c-.71-6.2-1.71-12.86-6.63-15.73a10.66,10.66,0,0,0-4.55-1.33c-3.55-.34-8,.52-23,12.23-9.73,7.6-12.69,11-14.78,13.83a57.14,57.14,0,0,0-4.74,7.58,5.2,5.2,0,0,1-4.26.38A3.94,3.94,0,0,1,300.78,101.29Z" transform="translate(-50.04 -39.75)"/><text x="-50.04" y="-39.75"/></g><g id="图层_2" data-name="图层 2"><path class="cls-4" d="M79.48,260c-.55-.95,12.58-15.34,31.13-16.56,10.16-.66,13.41,3.19,35.1,10.6,20.86,7.13,31.29,10.69,41.72,9.93,14.53-1.05,14.95-7.15,41.06-15.89,15.4-5.16,25.82-8.65,39.07-8,20.83,1.1,21.5,11.13,42.38,14.57,27,4.45,30.31-11.56,60.93-7.28,16.92,2.36,21.14,8,41.06,9.27,3.68.24,11.26.55,11.92,3.31.57,2.37-4.12,5.77-7.28,7.29-13.13,6.29-26.64-7-45-11.26-18.93-4.4-23.16,7.51-48.34,7.94-3.24.06-20.84,2.4-37.09-6.62-6.27-3.48-7.92-6.16-13.9-8-4.14-1.23-7.89-1.06-27.82,4-14,3.54-21,5.3-27.81,7.95-12.38,4.78-12,6.47-19.87,8.6-12.62,3.44-23.39,1.74-29.8.67-13.09-2.2-13.53-6.75-33.78-13.91-11.3-4-17-6-24.5-6C91.34,250.83,80,260.86,79.48,260Z" transform="translate(-50.04 -39.75)"/><path class="cls-4" d="M58.55,306c-2.15.63-3.81.94-5.51.23-1.52-.64-3.21-2.17-3-3.44.3-1.61,3.62-2.16,6.65-2.75,11.05-2.15,6.6-2.55,16.51-4.13a187,187,0,0,1,29.12-2.06c18.21,0,27.31-.06,34.63,3.21a61.68,61.68,0,0,0,12.84,4.81c5.8,1.38,9.82,2.34,14.9,1.38s8.19-3.23,10.09-1.6a3.69,3.69,0,0,1,.92,3.89c-1.5,3.95-11.23,3.56-14.22,3.44-9.94-.39-14.33-3.44-24.53-6.19-7.72-2.08-13.51-2.58-20.87-3.21-7-.6-6.64-.07-35.31.92-7.6.26-10.32.32-13.76,2.06A47.24,47.24,0,0,1,58.55,306Z" transform="translate(-50.04 -39.75)"/><path class="cls-4" d="M225.71,306a3.55,3.55,0,0,0-.69,4.13c.21.38,1,1.66,4.59,1.83,7,.35,13.61-4.12,14.67-4.81,15.51-10.16,39.6-2.86,44.48-1.38s9.05,5.83,18.12,8.95c2.81,1,7.67,2.44,11.46.22.49-.28,2.92-1.7,2.76-3.44-.15-1.53-2.23-2.4-2.53-2.52-2.42-1-4.75.08-6.19.46-4.87,1.29-9.58-2.52-13.3-4.81-7.12-4.4-14.29-5.52-24.53-7.11-11.61-1.81-21.21-2.91-29.12,2.29-4,2.61-8,7.18-13.53,6.42C229.63,305.88,227.22,304.67,225.71,306Z" transform="translate(-50.04 -39.75)"/><path class="cls-4" d="M386.9,301.38a14.82,14.82,0,0,0-4.35,1.37c-1.72.84-2.12,1.45-2.3,1.84a3.46,3.46,0,0,0,.69,3.66c.35.36,1.46,1.31,4.82.69a19,19,0,0,0,8.71-4.35c4.47-3.74,10.25-3.8,21.33-3.9,11.51-.11,20.35,2.7,28.89,5.5,10.83,3.55,14.25,6.24,24.3,7.57,2.45.32,10.91,1.31,16.51-3,1-.78,3.4-2.6,3-4.36a3.16,3.16,0,0,0-2.75-2.06c-1.74-.18-2.75,1.22-4.58,2.29C479,307.92,477,308,473.58,308c-7.09.13-15.42-4.64-17-5.51-8.95-5-17.23-6.12-28-7.56-14.92-2-28.66,0-33.71,2.75C393.05,298.74,390.57,300.86,386.9,301.38Z" transform="translate(-50.04 -39.75)"/><path class="cls-4" d="M355,345.58c-1.52,1.2-2.85,2.77-5.42,3.29-1.46.3-2.71.14-3.87,1.16-.7.62-1.48,1.78-1.16,2.71.43,1.26,2.63,1.47,3.48,1.55,4.86.46,9.16-3.62,9.87-4.26,4.82-4.34,14.11-5.08,32.7-6.57,14.48-1.17,29.89-2.4,47.79,3.09,5,1.53,11.35,3.95,22.44,6.58,16,3.79,21.05,3.11,23.22.39,1.33-1.67,1.86-4.47.78-5.61s-3.26.68-7.74,1.54a39,39,0,0,1-7.16.39c-9.52-.14-24.77-8.13-24.77-8.13-11.94-6.25-23.33-6-44.5-5.41a183.18,183.18,0,0,0-33.86,5C360.74,342.77,357.69,343.49,355,345.58Z" transform="translate(-50.04 -39.75)"/><path class="cls-4" d="M92.86,166.61c-4.8-5.27-15.87-12.86-25.15-8.13-6.31,3.22-11.11,11.78-8.51,17C62.3,181.8,78,180.3,83,178a14.75,14.75,0,0,1,3.49-1.16,16.55,16.55,0,0,1,7.35.39c3.3.9,4.29,2.17,4.84,1.74C99.78,178.11,97.32,171.49,92.86,166.61Zm-1.35,6.19c-.39.67-2.2-.31-5.42-.58-5-.42-6,1.45-12.38,1.93-3,.23-8.09.62-9.29-1.74-.6-1.18,0-2.63.58-4.06a9.9,9.9,0,0,1,4.64-5,10.65,10.65,0,0,1,5-1,15.67,15.67,0,0,1,5.62,1.16,23.24,23.24,0,0,1,5.61,3.1C88.21,168.3,92.13,171.74,91.51,172.8Z" transform="translate(-50.04 -39.75)"/><path class="cls-4" d="M119.9,218.49a17.7,17.7,0,0,0-8.48-9.35c-1-.49-8.63-4.1-13.44.1a8.9,8.9,0,0,0-2.83,8.86c1.23,4.08,5.95,6.06,9.16,6.33,2.86.24,4-.92,8.57-.48a12.92,12.92,0,0,1,4.39,1.07,11.85,11.85,0,0,1,4,3A19.48,19.48,0,0,0,119.9,218.49Zm-4,1.95a7.6,7.6,0,0,0-2.92-.88c-1.85-.19-2.51.29-4.38.49-1.61.17-4.52.55-6.34-1.17-.22-.21-2.06-2-1.55-3.9.55-2.06,3.49-2.67,4.18-2.82,3.66-.77,7.36,1.19,9.55,3.51a12.17,12.17,0,0,1,3,5.94A7.2,7.2,0,0,0,115.9,220.44Z" transform="translate(-50.04 -39.75)"/><path class="cls-4" d="M423.21,182.22c-2.9-4.77-10.44-3.63-12.15-3.37a18,18,0,0,0-9.79,5.12,20.3,20.3,0,0,0-5.74,11.44c-.89,4.86-.77,5.84-.52,5.91.45.13.92-3,3.51-4.58.69-.43,1.77-.89,6.12-.92,3.71,0,4.51.31,6.57.31,2.69,0,7.64.09,10.47-3.21C424.15,190,425.19,185.47,423.21,182.22Zm-3.59,6.72c-1.6,2.8-5.32,3.25-6.88,3.44a32,32,0,0,1-4.59-.07,59.19,59.19,0,0,0-6.11.19l-2.6.88,1-1.69a35.86,35.86,0,0,1,2.45-3.74,14.11,14.11,0,0,1,3.51-3.06,15.33,15.33,0,0,1,8.87-2.44c1.87.09,3.56.18,4.51,1.45C420.87,185.36,420.39,187.59,419.62,188.94Z" transform="translate(-50.04 -39.75)"/><path class="cls-4" d="M474.65,190.55c-3.26-3.12-8.13-2-11.77-1.23a19.12,19.12,0,0,0-9.63,5.05c-5.55,5.52-5.95,13.12-5.5,13.3.15.06.43-.75,1.52-1.61a7.23,7.23,0,0,1,2.6-1.22c3.58-1,6.08-1.7,9.25-1.15,2.45.43,2.16,1.06,4.28,1.46.59.11,7.62,1.31,10.7-3.52A9.18,9.18,0,0,0,474.65,190.55Zm-2.6,7.79c-1.26,2.67-5.69,2.55-6.57,2.53-2.85-.08-3-1.22-5.58-1.15-3.52.1-5.91,2.32-6.5,1.6-.24-.29,0-.84.31-1.52a8.2,8.2,0,0,1,3.13-3.44,19.42,19.42,0,0,1,3.59-2,17.18,17.18,0,0,1,7.11-1.68c1.51,0,2.54,0,3.44.76A4.33,4.33,0,0,1,472.05,198.34Z" transform="translate(-50.04 -39.75)"/><path class="cls-4" d="M361,241.89c6.74-2.54,7.93-5.75,20.05-8.49,10.91-2.47,22-5,34.1-.84,6.18,2.13,7.83,4.34,19.91,8.77,6.34,2.33,12.38,4.1,16.15,1.26,1.62-1.23,2.62-3.16,4.17-2.93s3.14,2.72,2.79,4.6c-.63,3.38-7.35,5.08-11.56,5.43-10,.81-12.65-5.56-26.86-10.3A69.08,69.08,0,0,0,394.28,236c-8,.38-12,.56-16,2.65a80.18,80.18,0,0,1-13.64,5.85,5.82,5.82,0,0,1-4.18,0c-.19-.1-1.27-.6-1.25-1.26S360.58,242.05,361,241.89Z" transform="translate(-50.04 -39.75)"/></g></svg>